<svg width="70" height="72" viewBox="0 0 70 72" fill="none" xmlns="http://www.w3.org/2000/svg">
<path d="M8.5324 32.2657C11.8027 32.2657 14.4538 29.6146 14.4538 26.3443C14.4538 23.0739 11.8027 20.4228 8.5324 20.4228C5.26208 20.4228 2.61096 23.0739 2.61096 26.3443C2.61096 29.6146 5.26208 32.2657 8.5324 32.2657Z" fill="#A2DDFD"/>
<path d="M33.857 4.34798C32.9413 4.48031 32.0143 4.2525 31.2794 3.69042C29.1184 2.03794 26.4187 1.05469 23.488 1.05469C20.5567 1.05469 17.8564 2.03836 15.6953 3.69169C14.9612 4.2532 14.0354 4.48059 13.1207 4.34841C6.86883 3.44517 1.05469 8.29814 1.05469 14.824C1.05469 22.1001 8.15555 27.0157 14.7795 24.9282C15.6565 24.6518 16.604 24.7814 17.4136 25.2174C19.2222 26.1913 21.2901 26.7453 23.4882 26.7453C25.6863 26.7453 27.7542 26.1914 29.5627 25.2174C30.3725 24.7814 31.32 24.652 32.1972 24.9283C38.8135 27.0121 45.9215 22.1113 45.9215 14.824C45.9214 8.30503 40.1147 3.44405 33.857 4.34798Z" fill="#CDE9FA"/>
<path d="M45.7182 16.9163C44.6908 16.8076 43.6493 16.7515 42.5974 16.7515C37.1817 16.7515 31.9502 18.2201 27.468 20.9984C25.0062 22.5245 22.8557 24.3886 21.0783 26.5189C21.8588 26.6674 22.6643 26.7453 23.4881 26.7453C25.6862 26.7453 27.7541 26.1914 29.5626 25.2174C30.3724 24.7814 31.3199 24.652 32.1971 24.9283C38.1574 26.8054 44.5156 23.014 45.7182 16.9163Z" fill="#A2DDFD"/>
<path d="M14.9622 42.6029C16.37 41.1951 16.37 38.9127 14.9622 37.5049C13.5545 36.0972 11.272 36.0972 9.86429 37.5049C8.45652 38.9127 8.45652 41.1951 9.86429 42.6029C11.272 44.0107 13.5545 44.0107 14.9622 42.6029Z" fill="#A2DDFD"/>
<path d="M59.826 70.9453C59.826 61.4304 52.1125 53.7168 42.5974 53.7168C33.9283 53.7168 26.7548 60.1196 25.5478 68.4543C25.3574 69.7693 26.3866 70.9453 27.7152 70.9453H59.826Z" fill="#00FFD1"/>
<path d="M42.5976 65.7589C47.8519 65.7589 52.8788 64.3492 57.1551 61.7288C54.1 56.9133 48.7224 53.7168 42.5974 53.7168C36.4725 53.7168 31.0949 56.9133 28.0398 61.7286C32.3162 64.3492 37.3433 65.7589 42.5976 65.7589Z" fill="#11DDB8"/>
<path d="M42.5976 61.5401C54.7659 61.5401 64.6302 52.6515 64.6302 41.6869C64.6302 30.7222 54.7659 21.8336 42.5976 21.8336C30.4294 21.8336 20.5651 30.7222 20.5651 41.6869C20.5651 52.6515 30.4294 61.5401 42.5976 61.5401Z" fill="#FFD3BD"/>
<path d="M42.5976 61.5401C54.7659 61.5401 64.6302 52.6515 64.6302 41.6869C64.6302 30.7222 54.7659 21.8336 42.5976 21.8336C30.4294 21.8336 20.5651 30.7222 20.5651 41.6869C20.5651 52.6515 30.4294 61.5401 42.5976 61.5401Z" fill="#FFD3BD"/>
<path d="M42.5976 61.5401C54.7659 61.5401 64.6302 52.6515 64.6302 41.6869C64.6302 30.7222 54.7659 21.8336 42.5976 21.8336C30.4294 21.8336 20.5651 30.7222 20.5651 41.6869C20.5651 52.6515 30.4294 61.5401 42.5976 61.5401Z" fill="#FFD3BD"/>
<path d="M62.8488 49.5174C61.5232 48.7114 59.9889 48.2687 58.4106 48.2687C56.2854 48.2687 54.2482 49.0556 52.6739 50.4846C49.9025 53.0009 49.1725 56.9368 50.5804 60.1959C56.0893 58.2654 60.5225 54.396 62.8488 49.5174Z" fill="#FFBE9D"/>
<path d="M66.1449 70.9453C67.4308 70.9453 68.4531 69.8403 68.3236 68.561C67.7679 63.0741 65.5484 58.2428 61.6079 53.9027C60.0056 52.1376 57.2751 52.0055 55.5096 53.6082C53.7443 55.2109 53.6126 57.9413 55.2151 59.7066C58.2754 63.0772 59.7406 66.6132 59.8259 70.9453H66.1449Z" fill="#FFD3BD"/>
<path d="M64.5667 57.7503C62.6653 60.1656 59.102 62.1207 57.5111 62.7487C59.0186 65.2327 59.7658 67.8909 59.8259 70.9453H66.1448C67.4307 70.9453 68.453 69.8403 68.3235 68.561C67.9268 64.6431 66.681 61.0595 64.5667 57.7503Z" fill="#11DDB8"/>
<path d="M62.6393 35.4556C63.5256 35.4451 64.1067 34.5337 63.7353 33.7289C60.2807 26.2441 52.1076 20.9703 42.5975 20.9703C33.0296 20.9703 24.8145 26.3085 21.3969 33.866C21.0116 34.7182 21.7917 35.6275 22.6909 35.3708C26.1727 34.3773 30.3372 32.5673 33.1669 30.8227C33.6562 30.5211 34.2766 30.9075 34.2197 31.4795C34.1966 31.7114 34.1772 31.9605 34.1636 32.2225C34.0526 34.344 35.854 36.065 37.9686 35.8616C41.4945 35.5224 46.6875 34.5738 49.9687 31.961C50.2349 31.749 50.6046 31.7258 50.8884 31.9136C54.1289 34.0582 58.2761 35.5072 62.6393 35.4556Z" fill="#D99A84"/>
<path d="M18.6867 16.9419C20.3857 15.2429 20.3857 12.4883 18.6867 10.7893C16.9877 9.09029 14.2331 9.09029 12.5341 10.7893C10.8351 12.4883 10.8351 15.2429 12.5341 16.9419C14.2331 18.6409 16.9877 18.6409 18.6867 16.9419Z" fill="#88D37F"/>
<path d="M33.0238 9.79904H28.3297C27.3802 9.79904 26.6106 10.5687 26.6106 11.5182V16.2122C26.6106 17.1617 27.3802 17.9314 28.3297 17.9314H33.0238C33.9733 17.9314 34.7429 17.1617 34.7429 16.2122V11.5182C34.7429 10.5687 33.9731 9.79904 33.0238 9.79904Z" fill="#B0ADE2"/>
<path d="M31.4098 49.8101C33.6897 49.8101 35.5379 48.3383 35.5379 46.5227C35.5379 44.7071 33.6897 43.2353 31.4098 43.2353C29.13 43.2353 27.2818 44.7071 27.2818 46.5227C27.2818 48.3383 29.13 49.8101 31.4098 49.8101Z" fill="#EDA1AB"/>
<path d="M53.7851 49.8101C56.0649 49.8101 57.9131 48.3383 57.9131 46.5227C57.9131 44.7071 56.0649 43.2353 53.7851 43.2353C51.5052 43.2353 49.657 44.7071 49.657 46.5227C49.657 48.3383 51.5052 49.8101 53.7851 49.8101Z" fill="#EDA1AB"/>
<path d="M12.419 35.3967C9.84952 35.3967 7.75899 37.4872 7.75899 40.0567C7.75899 42.6262 9.84952 44.7168 12.419 44.7168C14.9885 44.7168 17.0791 42.6262 17.0791 40.0567C17.0791 37.4872 14.9885 35.3967 12.419 35.3967ZM12.419 42.6074C11.0126 42.6074 9.86836 41.4631 9.86836 40.0567C9.86836 38.6504 11.0126 37.5061 12.419 37.5061C13.8254 37.5061 14.9697 38.6504 14.9697 40.0567C14.9697 41.4633 13.8254 42.6074 12.419 42.6074ZM69.3729 68.4547C68.7922 62.7223 66.5076 57.7304 62.3889 53.1938C62.2934 53.0886 62.1935 52.9892 62.0914 52.8927C64.4452 49.544 65.6848 45.6917 65.6848 41.687C65.6848 39.5269 65.3214 37.4013 64.6062 35.3595C64.9679 34.7238 65.0024 33.9571 64.693 33.2869C61.353 26.0504 54.1038 21.0987 45.7217 20.1036C46.5462 18.4877 46.9764 16.6918 46.9764 14.824C46.9764 11.448 45.5134 8.24498 42.9625 6.03619C40.403 3.82008 37.0295 2.82417 33.7063 3.30427C33.058 3.39764 32.4234 3.23761 31.9202 2.85272C29.4798 0.986484 26.5641 0 23.488 0C20.4113 0 17.495 0.986906 15.0545 2.85384C14.5523 3.23803 13.9189 3.39778 13.2716 3.30455C11.6436 3.06928 10.0184 3.17981 8.44102 3.63319C7.88119 3.79406 7.55775 4.37822 7.71863 4.93819C7.87936 5.49788 8.46366 5.82145 9.02349 5.66058C10.3119 5.29031 11.6397 5.20003 12.9698 5.39227C14.1837 5.56791 15.3793 5.2612 16.3361 4.52939C18.4056 2.94623 20.8787 2.10938 23.488 2.10938C26.0968 2.10938 28.5694 2.94581 30.6387 4.52827C31.5963 5.26064 32.7931 5.56748 34.0078 5.39184C36.7251 4.99922 39.4851 5.81541 41.5816 7.63059C43.6694 9.43847 44.8668 12.0604 44.8668 14.8238C44.8668 16.6649 44.3573 18.4178 43.3915 19.929C37.334 19.7485 31.5776 21.6218 27.0461 25.139C23.921 26.1302 20.6235 25.748 17.9137 24.2887C16.8154 23.6973 15.5898 23.5671 14.4626 23.9223C8.44467 25.8186 2.10952 21.3185 2.10952 14.824C2.10952 12.1839 3.16238 9.73252 5.07431 7.92155C5.49717 7.52091 5.51531 6.8535 5.11467 6.4305C4.71403 6.00764 4.04663 5.98936 3.62363 6.39014C1.28686 8.60344 0 11.5988 0 14.824C0 17.6611 0.994219 20.3088 2.78803 22.3865C1.98858 23.5444 1.5563 24.9186 1.5563 26.3443C1.5563 30.1909 4.68577 33.3203 8.53228 33.3203C12.5461 33.3203 15.7776 29.9102 15.4886 25.8529C15.958 25.7989 16.4514 25.8974 16.9134 26.146C19.0756 27.3102 21.5841 27.9093 24.1803 27.7808C22.6328 29.4716 21.3674 31.3709 20.4356 33.4313C20.1346 34.0972 20.1869 34.8403 20.5594 35.4433C17.6414 43.8968 20.8986 53.2605 29.0867 58.6302C26.6376 61.3202 25.0245 64.7077 24.5039 68.3031C24.2213 70.2548 25.7462 72 27.7152 72H50.9164C51.499 72 51.9711 71.5278 51.9711 70.9453C51.9711 70.3628 51.499 69.8906 50.9164 69.8906H27.7152C27.043 69.8906 26.4911 69.2989 26.5915 68.6055C27.0728 65.2819 28.611 62.1589 30.9462 59.7305C34.3685 61.5497 38.3506 62.5949 42.5976 62.5949C46.6162 62.5949 50.5344 61.653 54.0003 59.8676C54.8626 61.1076 58.2562 63.9674 58.719 69.8906H55.9311C55.3486 69.8906 54.8764 70.3628 54.8764 70.9453C54.8764 71.5278 55.3486 72 55.9311 72H66.1448C68.0551 72 69.5652 70.3529 69.3729 68.4547ZM8.53242 31.2109C4.76845 31.2109 2.43802 27.102 4.33828 23.878C6.94378 25.9635 10.2486 26.8076 13.3986 26.3277C13.3986 26.3332 13.399 26.3388 13.399 26.3443C13.399 29.0277 11.2158 31.2109 8.53242 31.2109ZM22.3578 34.3005C27.6091 22.6883 43.4292 18.3936 54.8845 25.441C58.4146 27.6128 61.1442 30.6316 62.7777 34.1709C62.8314 34.2878 62.7427 34.3995 62.6271 34.401C62.6269 34.401 62.6269 34.401 62.6269 34.401C58.7811 34.4451 54.8199 33.2508 51.4704 31.034C50.8067 30.5951 49.9393 30.636 49.3119 31.1359C46.1116 33.6842 40.7682 34.5327 37.8676 34.8119C36.399 34.9532 35.1395 33.7589 35.217 32.2777C35.2291 32.0441 35.2468 31.8108 35.2693 31.584C35.4125 30.1427 33.8418 29.1677 32.6135 29.9251C29.8724 31.6152 25.7687 33.396 22.4016 34.3569C22.3813 34.3626 22.3767 34.364 22.3622 34.3474C22.3455 34.3277 22.3494 34.3192 22.3578 34.3005ZM53.1613 57.9282C49.9629 59.6026 46.3295 60.4855 42.5976 60.4855C28.5652 60.4855 18.5998 48.3872 22.4411 36.4677C22.6202 36.4625 22.8011 36.4362 22.9804 36.385C26.3301 35.4292 30.2248 33.7711 33.1149 32.0836C32.9424 35.0106 35.379 37.1706 38.0694 36.9114C41.841 36.5486 47.0288 35.5579 50.4752 32.9037C54.1374 35.2801 58.4533 36.558 62.6517 36.51C62.6898 36.5096 62.7278 36.5075 62.7656 36.5051C63.3026 38.1843 63.5753 39.9227 63.5753 41.6867C63.5753 45.2897 62.4441 48.7592 60.2983 51.7735C58.49 51.0976 56.3604 51.4112 54.8007 52.8272C53.3354 54.1578 52.7773 56.1188 53.1613 57.9282ZM57.9098 61.4187C57.3535 60.5969 56.717 59.7918 55.996 58.9975C54.7868 57.6657 54.8867 55.5983 56.2185 54.3891C57.5533 53.1772 59.6149 53.2765 60.8271 54.6116C61.7295 55.6055 62.5354 56.6227 63.2486 57.666C61.7046 59.3227 59.3829 60.708 57.9098 61.4187ZM66.1448 69.8906H60.8341C60.6642 67.4886 60.0624 65.3003 58.9943 63.2378C60.6019 62.4452 62.7667 61.1034 64.3957 59.5072C65.9908 62.3414 66.9406 65.3735 67.2742 68.6675C67.3419 69.3359 66.7955 69.8906 66.1448 69.8906ZM33.0237 18.9861C34.5531 18.9861 35.7975 17.7417 35.7975 16.2122V11.5182C35.7975 9.98873 34.5531 8.74434 33.0237 8.74434H28.3296C26.8 8.74434 25.5558 9.98873 25.5558 11.5182V16.2122C25.5558 17.7417 26.8002 18.9861 28.3296 18.9861H33.0237ZM27.6652 16.2122V11.5182C27.6652 11.1518 27.9633 10.8537 28.3296 10.8537H33.0237C33.39 10.8537 33.6881 11.1518 33.6881 11.5182V16.2122C33.6881 16.5786 33.39 16.8767 33.0237 16.8767H28.3296C27.9633 16.8767 27.6652 16.5786 27.6652 16.2122ZM15.6137 19.2711C18.5946 19.2711 21.0196 16.846 21.0196 13.8652C21.0196 10.8844 18.5946 8.4593 15.6137 8.4593C12.6329 8.4593 10.2078 10.8844 10.2078 13.8652C10.2078 16.846 12.6329 19.2711 15.6137 19.2711ZM15.6137 10.5687C17.4315 10.5687 18.9103 12.0475 18.9103 13.8652C18.9103 15.6829 17.4315 17.1617 15.6137 17.1617C13.796 17.1617 12.3172 15.6829 12.3172 13.8652C12.3172 12.0475 13.796 10.5687 15.6137 10.5687ZM51.3793 40.616C50.7967 40.616 50.3246 41.0882 50.3246 41.6707V43.3582C50.3246 43.9407 50.7967 44.4129 51.3793 44.4129C51.9619 44.4129 52.434 43.9407 52.434 43.3582V41.6707C52.434 41.0882 51.9619 40.616 51.3793 40.616ZM45.3119 43.3865C43.6104 42.6909 41.3976 42.6867 40.3187 42.6867H40.2822C39.6996 42.6867 39.2275 43.1589 39.2275 43.7414C39.2275 44.3239 39.6996 44.7961 40.2822 44.7961H40.2991C41.1604 44.7954 43.1854 44.7961 44.5137 45.3389C45.0551 45.5604 45.6697 45.2984 45.889 44.7618C46.1095 44.2226 45.8511 43.6068 45.3119 43.3865ZM34.85 38.9384C34.2279 39.312 33.4034 39.3121 32.7814 38.9384C32.2819 38.6383 31.634 38.8001 31.3341 39.2993C31.0341 39.7987 31.1957 40.4466 31.6951 40.7467C32.0586 40.965 32.4533 41.1227 32.8632 41.2199C32.7983 41.3567 32.7609 41.5091 32.7609 41.6707V43.3582C32.7609 43.9407 33.2331 44.4129 33.8155 44.4129C34.398 44.4129 34.8702 43.9407 34.8702 43.3582V41.6707C34.8702 41.5091 34.8328 41.3567 34.7678 41.2199C35.1778 41.1227 35.5725 40.965 35.9362 40.7467C36.4355 40.4467 36.5971 39.7988 36.2971 39.2995C35.9972 38.8 35.3493 38.6385 34.85 38.9384Z" fill="black"/>
</svg>
