<svg width="512" height="523" viewBox="0 0 512 523" fill="none" xmlns="http://www.w3.org/2000/svg">
<path d="M331 361H181V482H331V361Z" fill="#0050C7"/>
<path d="M331 361H256V482H331V361Z" fill="#004597"/>
<path d="M512 45V301L482 331H30L0 301V45C0 20.099 20.099 0 45 0H467C491.901 0 512 20.099 512 45Z" fill="#0050C7"/>
<path d="M512 45V301L482 331H256V0H467C491.901 0 512 20.099 512 45Z" fill="#004597"/>
<path d="M467 30H45C36.599 30 30 36.599 30 45V361H482V45C482 36.599 475.401 30 467 30Z" fill="white"/>
<path d="M512 301V346C512 370.899 491.901 391 467 391H45C20.099 391 0 370.899 0 346V301H512Z" fill="#007BFF"/>
<path d="M512 301V346C512 370.899 491.901 391 467 391H256V301H512Z" fill="#004597"/>
<path d="M166 121H105C96.709 121 90 114.291 90 106C90 97.709 96.709 91 105 91H166C174.291 91 181 97.709 181 106C181 114.291 174.291 121 166 121Z" fill="#4200FF"/>
<path d="M166 181H105C96.709 181 90 174.291 90 166C90 157.709 96.709 151 105 151H166C174.291 151 181 157.709 181 166C181 174.291 174.291 181 166 181Z" fill="#4200FF"/>
<path d="M166 241H105C96.709 241 90 234.291 90 226C90 217.709 96.709 211 105 211H166C174.291 211 181 217.709 181 226C181 234.291 174.291 241 166 241Z" fill="#4200FF"/>
<path d="M412.301 126.7L373.3 142.599L361 166L331 211V226L361 271L444.32 215.453C448.493 212.671 451 207.988 451 202.972V113.5L412.301 126.7Z" fill="#1C0B4F"/>
<path d="M352.301 145L316 130.899L271 113.5V202.972C271 207.987 273.507 212.671 277.68 215.453L361 271V166L352.301 145Z" fill="#774BF5"/>
<path d="M451 113.5L361 166L271 113.5L277.301 109.6L353.5 63.1C358.001 60.399 363.999 60.399 368.5 63.1L451 113.5Z" fill="#4200FF"/>
<path d="M391 508C391 516.399 384.401 523 376 523H136C127.599 523 121 516.399 121 508C121 483.099 141.099 463 166 463H346C370.901 463 391 483.099 391 508Z" fill="#007BFF"/>
<path d="M391 508C391 516.399 384.401 523 376 523H256V463H346C370.901 463 391 483.099 391 508Z" fill="#0050C7"/>
</svg>
